<svg width="15" height="13" viewBox="0 0 15 13" fill="none" xmlns="http://www.w3.org/2000/svg">
<path d="M7.72 0.72L13.22 12.88H11.64L7.38 2.5L7.72 0.72ZM3.86 11.54C3.71333 11.94 3.73333 12.2533 3.92 12.48C4.10667 12.6933 4.32 12.8 4.56 12.8H4.72V13H0.9V12.8C0.9 12.8 0.926667 12.8 0.98 12.8C1.03333 12.8 1.06 12.8 1.06 12.8C1.34 12.8 1.62667 12.7067 1.92 12.52C2.21333 12.32 2.46667 11.9933 2.68 11.54H3.86ZM7.72 0.72L7.86 2.1L3.28 12.94H2.02L6.76 2.78C6.76 2.78 6.79333 2.7 6.86 2.54C6.94 2.38 7.02667 2.18667 7.12 1.96C7.22667 1.72 7.32 1.48667 7.4 1.26C7.48 1.03333 7.52667 0.853333 7.54 0.72H7.72ZM10.08 8.34V8.94H4.78V8.34H10.08ZM11.1 11.54H12.62C12.82 11.9933 13.0667 12.32 13.36 12.52C13.6533 12.7067 13.9333 12.8 14.2 12.8C14.2 12.8 14.2267 12.8 14.28 12.8C14.3333 12.8 14.36 12.8 14.36 12.8V13H10.26V12.8H10.42C10.6467 12.8 10.8533 12.6933 11.04 12.48C11.2267 12.2533 11.2467 11.94 11.1 11.54Z" fill="#FFF5B7"/>
</svg>
