<svg width="34" height="34" viewBox="0 0 34 34" fill="none" xmlns="http://www.w3.org/2000/svg">
<path d="M12.9095 32C13.6627 32 14.2732 31.3604 14.2732 30.5714C14.2732 29.7824 13.6627 29.1429 12.9095 29.1429C12.1564 29.1429 11.5459 29.7824 11.5459 30.5714C11.5459 31.3604 12.1564 32 12.9095 32Z" stroke="#EAE6C8" stroke-width="4" stroke-linecap="round" stroke-linejoin="round"/>
<path d="M27.9095 32C28.6627 32 29.2732 31.3604 29.2732 30.5714C29.2732 29.7824 28.6627 29.1429 27.9095 29.1429C27.1564 29.1429 26.5459 29.7824 26.5459 30.5714C26.5459 31.3604 27.1564 32 27.9095 32Z" stroke="#EAE6C8" stroke-width="4" stroke-linecap="round" stroke-linejoin="round"/>
<path d="M2 2H7.45455L11.1091 21.1286C11.2338 21.7863 11.5753 22.3771 12.0739 22.7976C12.5725 23.2181 13.1964 23.4414 13.8364 23.4286H27.0909C27.7309 23.4414 28.3548 23.2181 28.8533 22.7976C29.3519 22.3771 29.6935 21.7863 29.8182 21.1286L32 9.14286H8.81818" stroke="#EAE6C8" stroke-width="4" stroke-linecap="round" stroke-linejoin="round"/>
</svg>
