<svg width="32" height="32" viewBox="0 0 32 32" fill="none" xmlns="http://www.w3.org/2000/svg">
<rect width="32" height="32" rx="7" fill="white"/>
<path d="M23.0516 12.2231C22.8282 11.7098 22.506 11.2446 22.1032 10.8536C21.7 10.4615 21.2247 10.1499 20.703 9.93573C20.1621 9.71277 19.5819 9.59865 18.9961 9.59999C18.1744 9.59999 17.3726 9.82326 16.6759 10.245C16.5092 10.3459 16.3508 10.4567 16.2008 10.5774C16.0508 10.4567 15.8925 10.3459 15.7258 10.245C15.029 9.82326 14.2273 9.59999 13.4055 9.59999C12.8138 9.59999 12.2404 9.71245 11.6986 9.93573C11.1752 10.1507 10.7035 10.46 10.2985 10.8536C9.8951 11.2442 9.57286 11.7094 9.35004 12.2231C9.11835 12.7573 9 13.3246 9 13.9084C9 14.4592 9.11335 15.0331 9.33837 15.6169C9.52673 16.1048 9.79676 16.6109 10.1418 17.1219C10.6885 17.9307 11.4403 18.7742 12.3737 19.6293C13.9206 21.0467 15.4524 22.0258 15.5174 22.0655L15.9125 22.3169C16.0875 22.4277 16.3125 22.4277 16.4875 22.3169L16.8826 22.0655C16.9476 22.0241 18.4778 21.0467 20.0263 19.6293C20.9597 18.7742 21.7115 17.9307 22.2582 17.1219C22.6032 16.6109 22.8749 16.1048 23.0616 15.6169C23.2866 15.0331 23.4 14.4592 23.4 13.9084C23.4017 13.3246 23.2833 12.7573 23.0516 12.2231Z" fill="#480000"/>
</svg>
