<svg width="32" height="32" viewBox="0 0 32 32" fill="none" xmlns="http://www.w3.org/2000/svg">
<rect x="0.5" y="0.5" width="31" height="31" rx="6.5" fill="white" stroke="white"/>
<g clip-path="url(#clip0_103_427)">
<path d="M22.3277 11.4746C21.9872 11.1339 21.5829 10.8637 21.1379 10.6793C20.6929 10.4949 20.216 10.4 19.7343 10.4C19.2527 10.4 18.7757 10.4949 18.3308 10.6793C17.8858 10.8637 17.4815 11.1339 17.141 11.4746L16.4343 12.1812L15.7277 11.4746C15.0399 10.7868 14.107 10.4004 13.1343 10.4004C12.1616 10.4004 11.2288 10.7868 10.541 11.4746C9.8532 12.1624 9.4668 13.0952 9.4668 14.0679C9.4668 15.0406 9.8532 15.9734 10.541 16.6612L11.2477 17.3679L16.4343 22.5546L21.621 17.3679L22.3277 16.6612C22.6683 16.3207 22.9386 15.9165 23.1229 15.4715C23.3073 15.0265 23.4022 14.5496 23.4022 14.0679C23.4022 13.5862 23.3073 13.1093 23.1229 12.6643C22.9386 12.2194 22.6683 11.8151 22.3277 11.4746Z" stroke="black" stroke-width="1.2" stroke-linecap="round" stroke-linejoin="round"/>
</g>
<defs>
<clipPath id="clip0_103_427">
<rect width="16" height="16" fill="white" transform="translate(8.4668 8.40002)"/>
</clipPath>
</defs>
</svg>
