<svg width="30" height="30" viewBox="0 0 30 30" fill="none" xmlns="http://www.w3.org/2000/svg">
<path d="M15 0C23.1315 0 30 6.8685 30 15C30 19.7849 27.6119 24.1167 24 26.8857V27H23.8467C21.3447 28.8674 18.2804 30 15 30C11.7196 30 8.65528 28.8674 6.15332 27H6V26.8857C2.38807 24.1167 0 19.7834 0 15C0 6.8685 6.8685 0 15 0ZM13.5 21.8594C12.4761 21.8612 11.4834 22.2118 10.6855 22.8535C9.88766 23.4954 9.33237 24.3907 9.11133 25.3906C10.8633 26.406 12.8761 27 15 27C17.1239 27 19.1367 26.406 20.8887 25.3906C20.6674 24.3909 20.1123 23.4964 19.3145 22.8545C18.5166 22.2126 17.524 21.8614 16.5 21.8594H13.5ZM15 3C8.4945 3 3 8.4945 3 15C3 18.264 4.38446 21.2734 6.58496 23.4619C7.15713 22.0997 8.11863 20.9358 9.34863 20.1172C10.5786 19.2987 12.0226 18.8612 13.5 18.8594H16.5C17.9774 18.8612 19.4214 19.2987 20.6514 20.1172C21.8814 20.9358 22.8429 22.0997 23.415 23.4619C25.6155 21.2734 27 18.264 27 15C27 8.4945 21.5055 3 15 3ZM15 6C18.42 6 21 8.58 21 12C21 15.42 18.42 18 15 18C11.58 18 9 15.42 9 12C9 8.58 11.58 6 15 6ZM15 9C13.233 9 12 10.233 12 12C12 13.767 13.233 15 15 15C16.767 15 18 13.767 18 12C18 10.233 16.767 9 15 9Z" fill="#EAE6C8"/>
</svg>
